<mxfile host="app.diagrams.net" modified="2023-11-27T00:01:38.738Z" agent="Mozilla/5.0 (Windows NT 10.0; Win64; x64) AppleWebKit/537.36 (KHTML, like Gecko) Chrome/119.0.0.0 Safari/537.36" etag="tMA6vWLumpZAB8NGsspc" version="22.1.4" type="google">
  <diagram name="Page-1" id="58cdce13-f638-feb5-8d6f-7d28b1aa9fa0">
    <mxGraphModel grid="1" page="1" gridSize="10" guides="1" tooltips="1" connect="1" arrows="1" fold="1" pageScale="1" pageWidth="1100" pageHeight="850" background="none" math="0" shadow="0">
      <root>
        <mxCell id="0" />
        <mxCell id="1" parent="0" />
        <mxCell id="24f968d109e7d6b4-3" value="" style="ellipse;html=1;shape=endState;fillColor=#000000;strokeColor=#ff0000;rounded=1;shadow=0;comic=0;labelBackgroundColor=none;fontFamily=Verdana;fontSize=12;fontColor=#000000;align=center;" vertex="1" parent="1">
          <mxGeometry x="835" y="300" width="30" height="30" as="geometry" />
        </mxCell>
        <mxCell id="J8lIVonY61oWxFQ3Qr5k-6" value="Cancellation" style="swimlane;whiteSpace=wrap;html=1;rounded=1;shadow=0;comic=0;labelBackgroundColor=none;strokeWidth=1;fontFamily=Verdana;fontSize=12;align=center;" vertex="1" parent="1">
          <mxGeometry x="95" y="500" width="930" height="140" as="geometry" />
        </mxCell>
        <mxCell id="J8lIVonY61oWxFQ3Qr5k-7" style="edgeStyle=elbowEdgeStyle;html=1;labelBackgroundColor=none;endArrow=open;endSize=8;strokeColor=#ff0000;fontFamily=Verdana;fontSize=12;align=left;" edge="1" parent="J8lIVonY61oWxFQ3Qr5k-6" source="J8lIVonY61oWxFQ3Qr5k-8" target="J8lIVonY61oWxFQ3Qr5k-12">
          <mxGeometry relative="1" as="geometry" />
        </mxCell>
        <mxCell id="J8lIVonY61oWxFQ3Qr5k-8" value="Accepted" style="rounded=1;whiteSpace=wrap;html=1;arcSize=24;fillColor=#ffffc0;strokeColor=#ff0000;shadow=0;comic=0;labelBackgroundColor=none;fontFamily=Verdana;fontSize=12;fontColor=#000000;align=center;" vertex="1" parent="J8lIVonY61oWxFQ3Qr5k-6">
          <mxGeometry x="205" y="55" width="120" height="60" as="geometry" />
        </mxCell>
        <mxCell id="J8lIVonY61oWxFQ3Qr5k-9" style="edgeStyle=elbowEdgeStyle;html=1;labelBackgroundColor=none;endArrow=open;endSize=8;strokeColor=#ff0000;fontFamily=Verdana;fontSize=12;align=left;" edge="1" parent="J8lIVonY61oWxFQ3Qr5k-6" source="J8lIVonY61oWxFQ3Qr5k-10" target="J8lIVonY61oWxFQ3Qr5k-8">
          <mxGeometry relative="1" as="geometry" />
        </mxCell>
        <mxCell id="J8lIVonY61oWxFQ3Qr5k-10" value="" style="ellipse;html=1;shape=startState;fillColor=#000000;strokeColor=#ff0000;rounded=1;shadow=0;comic=0;labelBackgroundColor=none;fontFamily=Verdana;fontSize=12;fontColor=#000000;align=center;direction=south;" vertex="1" parent="J8lIVonY61oWxFQ3Qr5k-6">
          <mxGeometry x="80" y="70" width="30" height="30" as="geometry" />
        </mxCell>
        <mxCell id="J8lIVonY61oWxFQ3Qr5k-11" style="edgeStyle=elbowEdgeStyle;html=1;labelBackgroundColor=none;endArrow=open;endSize=8;strokeColor=#ff0000;fontFamily=Verdana;fontSize=12;align=left;" edge="1" parent="J8lIVonY61oWxFQ3Qr5k-6" source="J8lIVonY61oWxFQ3Qr5k-12" target="J8lIVonY61oWxFQ3Qr5k-13">
          <mxGeometry relative="1" as="geometry" />
        </mxCell>
        <mxCell id="J8lIVonY61oWxFQ3Qr5k-12" value="Accepted" style="rounded=1;whiteSpace=wrap;html=1;arcSize=24;fillColor=#ffffc0;strokeColor=#ff0000;shadow=0;comic=0;labelBackgroundColor=none;fontFamily=Verdana;fontSize=12;fontColor=#000000;align=center;" vertex="1" parent="J8lIVonY61oWxFQ3Qr5k-6">
          <mxGeometry x="455" y="55" width="120" height="60" as="geometry" />
        </mxCell>
        <mxCell id="J8lIVonY61oWxFQ3Qr5k-13" value="Credit Card Request Confirmation" style="rounded=1;whiteSpace=wrap;html=1;arcSize=24;fillColor=#ffffc0;strokeColor=#ff0000;shadow=0;comic=0;labelBackgroundColor=none;fontFamily=Verdana;fontSize=12;fontColor=#000000;align=center;" vertex="1" parent="J8lIVonY61oWxFQ3Qr5k-6">
          <mxGeometry x="695" y="55" width="120" height="60" as="geometry" />
        </mxCell>
        <mxCell id="J8lIVonY61oWxFQ3Qr5k-22" value="Remove Ticket" style="text;html=1;strokeColor=none;fillColor=none;align=center;verticalAlign=middle;whiteSpace=wrap;rounded=0;" vertex="1" parent="J8lIVonY61oWxFQ3Qr5k-6">
          <mxGeometry x="130" y="50" width="60" height="30" as="geometry" />
        </mxCell>
        <mxCell id="J8lIVonY61oWxFQ3Qr5k-23" value="Update Flight Availability" style="text;html=1;strokeColor=none;fillColor=none;align=center;verticalAlign=middle;whiteSpace=wrap;rounded=0;" vertex="1" parent="J8lIVonY61oWxFQ3Qr5k-6">
          <mxGeometry x="345" y="50" width="95" height="30" as="geometry" />
        </mxCell>
        <mxCell id="J8lIVonY61oWxFQ3Qr5k-24" value="Refund Payment" style="text;html=1;strokeColor=none;fillColor=none;align=center;verticalAlign=middle;whiteSpace=wrap;rounded=0;" vertex="1" parent="J8lIVonY61oWxFQ3Qr5k-6">
          <mxGeometry x="605" y="50" width="60" height="30" as="geometry" />
        </mxCell>
        <mxCell id="J8lIVonY61oWxFQ3Qr5k-25" style="edgeStyle=orthogonalEdgeStyle;html=1;exitX=0.5;exitY=0;labelBackgroundColor=none;endArrow=open;endSize=8;strokeColor=#ff0000;fontFamily=Verdana;fontSize=12;align=left;exitDx=0;exitDy=0;entryX=0.5;entryY=1;entryDx=0;entryDy=0;" edge="1" parent="1" source="J8lIVonY61oWxFQ3Qr5k-13" target="24f968d109e7d6b4-3">
          <mxGeometry relative="1" as="geometry">
            <mxPoint x="630" y="160" as="sourcePoint" />
            <mxPoint x="800" y="160" as="targetPoint" />
          </mxGeometry>
        </mxCell>
        <mxCell id="J8lIVonY61oWxFQ3Qr5k-30" value="Send Cancellation Confirmation Email" style="text;html=1;strokeColor=none;fillColor=none;align=center;verticalAlign=middle;whiteSpace=wrap;rounded=0;" vertex="1" parent="1">
          <mxGeometry x="860" y="400" width="120" height="30" as="geometry" />
        </mxCell>
        <mxCell id="_nyYYpNnNGo9e5vTnCKn-3" value="" style="ellipse;html=1;shape=startState;fillColor=#000000;strokeColor=#ff0000;rounded=1;shadow=0;comic=0;labelBackgroundColor=none;fontFamily=Verdana;fontSize=12;fontColor=#000000;align=center;direction=south;" vertex="1" parent="1">
          <mxGeometry x="135" y="40" width="30" height="30" as="geometry" />
        </mxCell>
        <mxCell id="_nyYYpNnNGo9e5vTnCKn-4" value="Manage Booking Page" style="rounded=1;whiteSpace=wrap;html=1;arcSize=24;fillColor=#ffffc0;strokeColor=#ff0000;shadow=0;comic=0;labelBackgroundColor=none;fontFamily=Verdana;fontSize=12;fontColor=#000000;align=center;" vertex="1" parent="1">
          <mxGeometry x="90" y="160" width="120" height="60" as="geometry" />
        </mxCell>
        <mxCell id="_nyYYpNnNGo9e5vTnCKn-5" style="edgeStyle=orthogonalEdgeStyle;html=1;labelBackgroundColor=none;endArrow=open;endSize=8;strokeColor=#ff0000;fontFamily=Verdana;fontSize=12;align=left;" edge="1" parent="1" source="_nyYYpNnNGo9e5vTnCKn-3" target="_nyYYpNnNGo9e5vTnCKn-4">
          <mxGeometry relative="1" as="geometry" />
        </mxCell>
        <mxCell id="_nyYYpNnNGo9e5vTnCKn-6" value="User Selects Manage Existing Booking" style="text;html=1;strokeColor=none;fillColor=none;align=center;verticalAlign=middle;whiteSpace=wrap;rounded=0;" vertex="1" parent="1">
          <mxGeometry x="160" y="100" width="95" height="30" as="geometry" />
        </mxCell>
        <mxCell id="_nyYYpNnNGo9e5vTnCKn-7" style="edgeStyle=orthogonalEdgeStyle;html=1;entryX=0.5;entryY=0;labelBackgroundColor=none;endArrow=open;endSize=8;strokeColor=#ff0000;fontFamily=Verdana;fontSize=12;align=left;entryDx=0;entryDy=0;" edge="1" parent="1" source="_nyYYpNnNGo9e5vTnCKn-4" target="_nyYYpNnNGo9e5vTnCKn-11">
          <mxGeometry relative="1" as="geometry">
            <mxPoint x="390" y="150" as="sourcePoint" />
            <mxPoint x="510" y="100" as="targetPoint" />
          </mxGeometry>
        </mxCell>
        <mxCell id="_nyYYpNnNGo9e5vTnCKn-8" value="User Enters Booking ID" style="text;html=1;strokeColor=none;fillColor=none;align=center;verticalAlign=middle;whiteSpace=wrap;rounded=0;" vertex="1" parent="1">
          <mxGeometry x="160" y="260" width="70" height="30" as="geometry" />
        </mxCell>
        <mxCell id="_nyYYpNnNGo9e5vTnCKn-11" value="Search Results" style="rounded=1;whiteSpace=wrap;html=1;arcSize=24;fillColor=#ffffc0;strokeColor=#ff0000;shadow=0;comic=0;labelBackgroundColor=none;fontFamily=Verdana;fontSize=12;fontColor=#000000;align=center;" vertex="1" parent="1">
          <mxGeometry x="90" y="320" width="120" height="60" as="geometry" />
        </mxCell>
        <mxCell id="_nyYYpNnNGo9e5vTnCKn-15" value="User Selects Cancel Booking" style="text;html=1;strokeColor=none;fillColor=none;align=center;verticalAlign=middle;whiteSpace=wrap;rounded=0;" vertex="1" parent="1">
          <mxGeometry x="165" y="425" width="90" height="30" as="geometry" />
        </mxCell>
        <mxCell id="_nyYYpNnNGo9e5vTnCKn-16" style="edgeStyle=orthogonalEdgeStyle;html=1;entryX=0.058;entryY=-0.021;labelBackgroundColor=none;endArrow=open;endSize=8;strokeColor=#ff0000;fontFamily=Verdana;fontSize=12;align=left;entryDx=0;entryDy=0;entryPerimeter=0;" edge="1" parent="1" target="J8lIVonY61oWxFQ3Qr5k-6">
          <mxGeometry relative="1" as="geometry">
            <mxPoint x="149.5" y="380" as="sourcePoint" />
            <mxPoint x="149.5" y="480" as="targetPoint" />
          </mxGeometry>
        </mxCell>
      </root>
    </mxGraphModel>
  </diagram>
</mxfile>
